<svg width="32" height="32" viewBox="0 0 32 32" fill="none" xmlns="http://www.w3.org/2000/svg">
<path d="M32 16C32 24.8366 24.8366 32 16 32C7.16344 32 0 24.8366 0 16C0 7.16344 7.16344 0 16 0C24.8366 0 32 7.16344 32 16Z" fill="white"/>
<path d="M27.2 16.0002C27.2 22.1858 22.1856 27.2002 16 27.2002C9.81443 27.2002 4.80002 22.1858 4.80002 16.0002C4.80002 9.8146 9.81443 4.80019 16 4.80019C22.1856 4.80019 27.2 9.8146 27.2 16.0002Z" fill="#FF7114"/>
<path d="M21.6 16.8H16.8V21.6H15.2V16.8H10.4V15.2H15.2V10.4H16.8V15.2H21.6V16.8Z" fill="white"/>
</svg>
